# xmcd CD database file
#
# Track frame offsets:
#	150
#	36447
#	92722
#	122857
#	143455
#	175832
#	192150
#	241450
#
# Disc length: 3793 seconds
#
# Revision: 0
# Processed by: cddbd v1.5PL3 Copyright (c) Steve Scherf et al.
# Submitted via: CDex 1.51
#
DISCID=690ecf08
DTITLE=Ori Kaplan Trio Plus - Delirium
DYEAR=2000
DGENRE=Jazz
TTITLE0=Dawn
TTITLE1=Air
TTITLE2=Delirium
TTITLE3=Ictus
TTITLE4=Embrio
TTITLE5=Embrio
TTITLE6=Hazy Dazy On Mars
TTITLE7=Still Calm
EXTD=YEAR: 2000
EXTT0=
EXTT1=
EXTT2=
EXTT3=
EXTT4=
EXTT5=
EXTT6=
EXTT7=
PLAYORDER=
